<?xml version="1.0" encoding="utf-8"?>
<!-- Generator: Adobe Illustrator 23.0.1, SVG Export Plug-In . SVG Version: 6.00 Build 0)  -->
<svg version="1.1" id="Layer_1" xmlns="http://www.w3.org/2000/svg" xmlns:xlink="http://www.w3.org/1999/xlink" x="0px" y="0px"
	 viewBox="0 0 473 281" style="enable-background:new 0 0 473 281;" xml:space="preserve">
<style type="text/css">
	.st0{clip-path:url(#SVGID_2_);fill:#2B328C;}
	.st1{fill:#EF3742;}
	.st2{clip-path:url(#SVGID_4_);fill:#FFFFFF;}
</style>
<g>
	<defs>
		<rect id="SVGID_1_" x="-19" y="-29.2" width="510.2" height="340.2"/>
	</defs>
	<clipPath id="SVGID_2_">
		<use xlink:href="#SVGID_1_"  style="overflow:visible;"/>
	</clipPath>
	<path class="st0" d="M466.6,164.6c0-0.7,0-0.9-0.1-1.6H461c3-2.4,4.1-7.7,4.1-11.3c0-7.9-2.9-13.1-10.1-13.1h-8.3
		c0,0.7-0.1,0.9-0.1,1.7c0,0.7,0,1.3,0.1,2h7.3c5,0,6.2,5.6,6.2,10.1c0,4.5-1.2,10.6-6,10.6h-8.1c0,0.8-0.1,1.1-0.1,1.9
		c0,0.6,0,1.2,0.1,1.7h20.3C466.5,166,466.6,165.3,466.6,164.6 M442.2,153.1v-14.5h-4.7v16.3C439.1,154.6,440.9,154,442.2,153.1
		 M432.8,154.6v-16h-4.7v16.1c0,5-2,8.3-6.1,8.3h-3.6c-2.4,0-4-1.1-5-3c6.6-0.3,9.1-6.4,9.1-12.6v-8.8H418v8.7c0,7.3-2.4,9.7-4,9.7
		c-0.9,0-1.6-0.7-1.6-1.9v-16.4h-4.7v16c0,7.8,4.1,12.1,9.8,12.1h5.5C428.7,166.6,432.8,162.4,432.8,154.6 M403,166.6v-16.5
		c0-7.8-3.1-11.5-8.9-11.5h-8.2c-0.1,1.3-0.1,2.5,0,3.7h6.8c4,0,5.7,2.7,5.7,7.7v16.7H403z M382.6,166.3c0-0.2-0.1-0.3-0.2-0.6
		l-6.2-9.8c4-1.9,5.7-7.4,5.7-12.4v-5h-4.5v6.3c0,4.1-0.8,8.1-2.5,8.1c-0.7,0-1.3-1.2-1.8-1.8l-7.9-12.6h-4.2
		c-0.3,0-0.5,0.1-0.5,0.3c0,0.1,0,0.3,0.1,0.4l6.3,9.9c-4.2,2.2-5.7,7.4-5.7,12.4v5h4.5v-6.9c0-4.1,0.9-7.5,2.5-7.5
		c0.6,0,1.3,1.1,1.7,1.7l7.9,12.7h4.1C382.4,166.6,382.6,166.5,382.6,166.3 M357.2,148.2c0-6-2.5-9.6-7.3-9.6h-5.8
		c-0.4,0-1.1,0-1.1-0.9v-5.8h-4.6v6c0,3.1,1.5,4.5,3.4,4.5h6.3c3.2,0,4.4,3.1,4.4,6.4c0,8-4.8,13.9-9,15.1c-0.2,0.9-0.2,2.8,0,3.6
		C349.4,166.8,357.2,159.8,357.2,148.2"/>
	<path class="st0" d="M467.2,127.2c0-0.2-0.1-0.3-0.2-0.6l-6.2-9.8c4-1.9,5.7-7.4,5.7-12.4v-5H462v6.3c0,4.1-0.8,8.1-2.5,8.1
		c-0.7,0-1.3-1.2-1.8-1.8l-7.9-12.6h-4.2c-0.3,0-0.5,0.1-0.5,0.3c0,0.1,0,0.3,0.1,0.4l6.3,9.9c-4.2,2.2-5.7,7.4-5.7,12.4v5h4.5v-6.9
		c0-4.1,0.9-7.5,2.5-7.5c0.6,0,1.3,1.1,1.7,1.7l7.9,12.7h4.1C467,127.5,467.2,127.4,467.2,127.2 M441.3,101.1c0-0.6,0-1.1,0-1.7
		h-19.7c0,0.7-0.1,0.8-0.1,1.6c0,0.7,0,1.4,0.1,2.1h11.5v24.4h4.6v-24.4h3.4C441.3,102.3,441.3,102,441.3,101.1 M417.7,99.5H413
		v28.1h4.7V99.5z M403.7,123.3c0,0.4-0.2,0.6-0.5,0.6h-10.7c-0.3,0-0.5-0.2-0.5-0.6v-19.7c0-0.3,0.2-0.5,0.4-0.5h6
		c3.8,0,5.2,3.5,5.2,7.5V123.3z M408.3,124.4v-14.6c0-6.1-3.3-10.4-8.4-10.4h-9c-2.4,0-3.4,1.5-3.4,3v22c0,1.4,0.7,3.1,2.4,3.1h16.1
		C407.7,127.5,408.3,126,408.3,124.4"/>
	<path class="st0" d="M466.6,74.9c0-9.7-3.8-14.5-10-14.5h-12.9c0,0.7-0.1,1.3-0.1,2c0,0.7,0,0.9,0.1,1.6h5.8
		c-2.8,2.1-4.3,5.7-5,12.6l-1.3,11.8h4.6l1.2-11.7c1-9.1,2.6-12.9,6.9-12.9c4,0,5.8,4.2,5.8,11c0,6.8-2.5,10.4-6.5,10.4
		c-0.6,0-2.1-0.3-2.5-0.5c-0.2,0.7-0.5,2.6-0.5,3.5c0.5,0.2,1.6,0.5,3.4,0.5C462.5,88.8,466.6,83.6,466.6,74.9 M439.9,88.4
		c-0.6-3-1.3-7-1.3-11.6v-8.9c0-5.1-2.5-7.5-6.8-7.5h-5c0,0.7-0.1,0.9-0.1,1.6c0,0.7,0,1.4,0.1,2.1h3.6c2.6,0,3.7,1.5,3.7,4.1v7
		c0,5.4-3.4,9.9-6.4,9.9c-0.5,0-1.4-0.1-1.9-0.3c-0.2,0.8-0.6,2.5-0.7,3.7c0.4,0.4,1.5,0.6,2.2,0.6c3.7,0,6.1-3.3,7.2-7.2
		c0.1,1.6,0.6,4.9,1.1,6.6H439.9z M421.7,60.4H417v34.5h4.7V60.4z M400.4,62c0-0.6,0-1.1,0-1.7h-19.7c0,0.7-0.1,0.8-0.1,1.6
		c0,0.7,0,1.4,0.1,2.1h11.5v24.4h4.6V64h3.4C400.3,63.2,400.4,62.9,400.4,62 M376.8,60.4h-4.7v28.1h4.7V60.4z M367.6,62
		c0-0.6,0-1.1,0-1.7h-19.7c0,0.7-0.1,0.8-0.1,1.6c0,0.7,0,1.4,0.1,2.1h11.5v24.4h4.6V64h3.4C367.6,63.2,367.6,62.9,367.6,62"/>
	<path class="st0" d="M136.2,165.1c0-0.5,0-1.1-0.1-1.6h-6.8c-0.3,0-0.4-0.2-0.4-0.4v-19.4h-4v20.1c0,1.8,0.8,2.7,2.3,2.7h9
		C136.2,165.9,136.2,165.7,136.2,165.1 M121.4,165.1c0-0.5,0-1.1-0.1-1.6h-7.6c-0.3,0-0.4-0.2-0.4-0.4v-6.8h5.8c0-0.6,0-0.8,0-1.4
		c0-0.5,0-1.1-0.1-1.6h-5.7v-6.3c0-0.3,0.1-0.5,0.4-0.5h7.6c0.1-0.5,0.1-1.1,0.1-1.6c0-0.6,0-0.8,0-1.4h-9.8c-1.5,0-2.3,1-2.3,2.7
		v17.3c0,1.8,0.8,2.7,2.3,2.7h9.8C121.4,165.9,121.4,165.7,121.4,165.1 M100.2,156.1h-4.9l1.9-8.5c0.1-0.3,0.2-0.4,0.5-0.4
		s0.5,0.2,0.5,0.4L100.2,156.1z M106.8,166.5l-5.4-19.8c-0.5-2-1.7-3.2-3.7-3.2c-2,0-3.1,1.3-3.7,3.2l-5.4,19.8H93l1.7-7.5h6.2
		l1.7,7.5H106.8z M82.2,150.1c0,2.3-1.9,3.3-3.9,3.3h-2.6v-6.3c0-0.3,0.1-0.5,0.4-0.5h2C80,146.7,82.2,147.5,82.2,150.1 M87.6,166.5
		c-2.5-2.8-6.1-8.3-6.9-10.5c3.5-0.8,5.4-3.2,5.4-6.1c0-4.4-3.3-6.3-7-6.3H74c-1.5,0-2.3,1-2.3,2.7v20.1h4v-10.2h1.9
		c1,3.4,3.9,8.9,5,10.2H87.6z M68.3,160.8c0-3.1-1.5-5.6-6.2-7.5c-1.8-0.7-3.9-1.8-3.9-4.1c0-2.3,1.5-3,3.1-3c1.5,0,3,0.7,4.2,1.6
		c0.5-0.5,1.2-1.8,1.4-2.5c-1.9-1.3-3.1-2.1-6.3-2.1c-3.5,0-6.7,1.9-6.7,5.9c0,2.1,0.8,4.9,5.8,6.8c2.3,0.8,4.2,2.2,4.2,4.9
		c0,1.9-1.6,3.3-4.3,3.3c-1.9,0-3.4-1.1-4.6-2c-0.5,0.5-1.2,1.8-1.4,2.5c1.8,1.6,4,2.6,7.1,2.6C65.3,167.1,68.3,164.8,68.3,160.8
		 M50.1,143.7h-4.1v22.8h4.1V143.7z M32.6,163v-19.3h-4v18.9c0,0.5-0.4,0.7-0.6,0l-6.2-16.3c-0.8-2.2-2.2-2.7-4.2-2.7
		c-2,0-3.1,1.3-3.1,3.5v19.3h4v-18.9c0-0.5,0.4-0.7,0.6,0l6.2,16.3c0.8,2.2,2,2.7,4,2.7C31.1,166.5,32.6,165.2,32.6,163 M10.3,143.7
		H6.2v22.8h4.1V143.7z"/>
	<path class="st0" d="M91.7,138.7v-18.8c0-2.7-1.6-4-3.6-4c-2,0-3.5,0.5-4.1,3.2l-2.7,11.5c-0.1,0.4-0.5,0.4-0.6,0L78,119.1
		c-0.6-2.7-2.1-3.2-4.1-3.2c-2,0-3.6,1.3-3.6,4v18.8h3.9V120c0-1,0.8-0.6,0.9,0l2.8,11.6c0.4,1.5,1.1,2.8,3,2.8c2,0,2.7-1.3,3.1-2.8
		l2.8-11.6c0.2-0.6,0.9-1,0.9,0v18.7H91.7z M62.8,127.3c0,3.7-1.6,9.1-6.1,9.1c-4.5,0-6.1-5.4-6.1-9.1c0-3.7,1.6-9,6.1-9
		C61.2,118.3,62.8,123.6,62.8,127.3 M67,127.3c0-6.4-3.9-12.1-10.3-12.1c-6.4,0-10.3,5.7-10.3,12.1c0,6.4,3.9,12.1,10.3,12.1
		C63.1,139.4,67,133.7,67,127.3 M39.6,127.4c0,5.2-2.9,8.5-6.6,8.5h-2c-0.5,0-0.8-0.2-0.8-0.8v-15.4c0-0.6,0.3-0.8,0.8-0.8h2
		C36.7,118.8,39.6,122.2,39.6,127.4 M43.9,127.4c0-6.4-4.1-11.4-10.3-11.4h-4.8c-1.7,0-2.6,0.8-2.6,2.7V136c0,1.9,0.9,2.7,2.6,2.7
		h4.8C39.8,138.8,43.9,133.8,43.9,127.4 M17.1,128.3h-4.9l1.9-8.5c0.1-0.3,0.2-0.4,0.5-0.4s0.5,0.2,0.5,0.4L17.1,128.3z M23.7,138.8
		L18.3,119c-0.5-2-1.7-3.2-3.7-3.2c-2,0-3.1,1.3-3.7,3.2l-5.4,19.8h4.3l1.7-7.5h6.2l1.7,7.5H23.7z"/>
	<path class="st0" d="M86.8,99.6c0,5.2-2.9,8.5-6.6,8.5h-2c-0.5,0-0.8-0.2-0.8-0.8V91.9c0-0.6,0.3-0.8,0.8-0.8h2
		C83.9,91.1,86.8,94.4,86.8,99.6 M91.1,99.6c0-6.4-4.1-11.4-10.3-11.4H76c-1.7,0-2.6,0.8-2.6,2.7v17.3c0,1.9,0.9,2.7,2.6,2.7h4.8
		C87,111,91.1,106,91.1,99.6 M69.3,88.2h-4.1V111h4.1V88.2z M62.7,88.2h-4.3l-4.3,18.9c-0.1,0.3-0.2,0.5-0.5,0.5s-0.5-0.2-0.5-0.5
		l-4.3-18.9h-4.3l5.4,20.2c0.5,1.9,1.7,2.8,3.7,2.8c2,0,3.1-0.8,3.7-2.8L62.7,88.2z M37.1,100.6h-4.9l1.9-8.5
		c0.1-0.3,0.2-0.4,0.5-0.4s0.5,0.2,0.5,0.4L37.1,100.6z M43.7,111l-5.4-19.8c-0.5-2-1.7-3.2-3.7-3.2c-2,0-3.1,1.3-3.7,3.2L25.6,111
		h4.3l1.7-7.5h6.2l1.7,7.5H43.7z M19.6,99.6c0,5.2-2.9,8.5-6.6,8.5h-2c-0.5,0-0.8-0.2-0.8-0.8V91.9c0-0.6,0.3-0.8,0.8-0.8h2
		C16.7,91.1,19.6,94.4,19.6,99.6 M23.9,99.6c0-6.4-4.1-11.4-10.3-11.4H8.8c-1.7,0-2.6,0.8-2.6,2.7v17.3c0,1.9,0.9,2.7,2.6,2.7h4.8
		C19.8,111,23.9,106,23.9,99.6"/>
	<path class="st0" d="M105.1,79.8V60.5h-4v18.9c0,0.5-0.4,0.7-0.6,0l-6.2-16.3c-0.8-2.2-2.2-2.7-4.2-2.7c-2,0-3.1,1.3-3.1,3.5v19.3
		h4V64.3c0-0.5,0.4-0.7,0.6,0l6.2,16.3c0.8,2.2,2,2.7,4,2.7C103.6,83.3,105.1,82,105.1,79.8 M83.4,81.9c0-0.5,0-1.1-0.1-1.6h-7.6
		c-0.3,0-0.4-0.2-0.4-0.4v-6.8h5.8c0-0.6,0-0.8,0-1.4c0-0.5,0-1.1-0.1-1.6h-5.7v-6.3c0-0.3,0.1-0.5,0.4-0.5h7.6
		c0.1-0.5,0.1-1.1,0.1-1.6c0-0.6,0-0.8,0-1.4h-9.8c-1.5,0-2.3,1-2.3,2.7v17.3c0,1.8,0.8,2.7,2.3,2.7h9.8
		C83.4,82.7,83.4,82.5,83.4,81.9 M67.5,81.4v-8.3c0-1.8-0.8-2.7-2.3-2.7h-5.7c0,0.6,0,0.8,0,1.4c0,0.5,0,1.1,0.1,1.6h3.5
		c0.3,0,0.4,0.2,0.4,0.4v6.3c-0.8,0.4-1.8,0.6-3,0.6c-3.8,0-6.4-3.2-6.4-8.4c0-5.7,2.5-9.3,6.3-9.3c2.5,0,4,0.8,5.4,2
		c0.6-0.9,1.2-1.8,1.4-2.5c-2.7-1.9-5.3-2.5-7.7-2.5c-5.7,0-9.7,5.9-9.7,12.3c0,6.4,3.8,11.5,10.1,11.5
		C62.9,83.8,65.5,82.9,67.5,81.4 M41.5,72.9h-4.9l1.9-8.5c0.1-0.3,0.2-0.4,0.5-0.4s0.5,0.2,0.5,0.4L41.5,72.9z M48.2,83.3l-5.4-19.8
		c-0.5-2-1.7-3.2-3.7-3.2c-2,0-3.1,1.3-3.7,3.2L30,83.3h4.3l1.7-7.5h6.2l1.7,7.5H48.2z M27.5,83.2V64.4c0-2.7-1.6-4-3.6-4
		c-2,0-3.5,0.5-4.1,3.2l-2.7,11.5c-0.1,0.4-0.5,0.4-0.6,0l-2.7-11.5c-0.6-2.7-2.1-3.2-4.1-3.2c-2,0-3.6,1.3-3.6,4v18.8h3.9V64.5
		c0-1,0.8-0.6,0.9,0l2.8,11.6c0.4,1.5,1.1,2.8,3,2.8c2,0,2.7-1.3,3.1-2.8l2.8-11.6c0.2-0.6,0.9-1,0.9,0v18.7H27.5z"/>
</g>
<path class="st1" d="M236.4,32.8l69.8,120.9H166.6L236.4,32.8z M328.7,166.7L236.4,6.8l-92.3,159.9H328.7z"/>
<path class="st1" d="M236.4,194.2L166.6,73.3h139.6L236.4,194.2z M144.1,60.4l92.3,159.9l92.3-159.9H144.1z"/>
<rect x="6.1" y="229.6" class="st1" width="460.5" height="40.1"/>
<g>
	<defs>
		<rect id="SVGID_3_" x="-19" y="-29.2" width="510.2" height="340.2"/>
	</defs>
	<clipPath id="SVGID_4_">
		<use xlink:href="#SVGID_3_"  style="overflow:visible;"/>
	</clipPath>
	<path class="st2" d="M441.2,263c-3.2-4.2-5.7-7.6-7.7-10.2c2-1,3.2-1.8,3.8-2.2c0.7-0.7,1.1-1.6,1.5-2.9l1.9-8.1H435l-2.5,11.3
		c-0.1,0.4-0.2,0.4-0.3,0.2c-3.8-4.9-6.7-8.7-8.9-11.6h-5.9v0.3c3.1,3.9,5.6,7.1,7.5,9.7c-1.9,1-3.1,1.8-3.6,2.3
		c-0.7,0.6-1.1,1.4-1.4,2.4l-2.4,9.2h5.4l3-11.8c0-0.2,0-0.3,0-0.3c0.1,0.1,0.3,0.3,0.4,0.4c3.9,5.1,6.9,9,8.8,11.7h6V263z
		 M411.3,248.6c0-3-0.8-5.3-2.5-6.8c-1.9-1.8-5.4-2.6-10.6-2.6c-2.1,0-3.9,0.2-5.6,0.5v5.2h0.4c2.2-1.1,5.1-1.7,8.6-1.7
		c2.8,0,4.1,1.4,4.1,4.1v15.9h5.5V248.6z M386.4,248.4c0-3.4-0.8-5.9-2.5-7.4c-1.3-1.1-3.1-1.7-5.5-1.7c-1.7,0-3.2,0.2-4.3,0.5v5
		h0.3c0.4-0.4,1.1-0.8,2-1.1c0.9-0.3,1.7-0.5,2.4-0.5c1.5,0,2.2,0.8,2.2,2.3v6.4c0,1.1-0.5,2.2-1.4,3.2c-0.6,0.6-1.5,1.3-2.9,2.1
		c-1.3,0.8-2.4,1.3-3.2,1.6v5.1c0.5,0,1.1-0.2,2-0.5c2.6-1.1,4.3-3.2,4.9-6.2c0.1-0.3,0.2-0.4,0.4-0.4c0.2,0,0.3,0.2,0.3,0.4v6.1
		h5.2V248.4z M366.8,244.6c0-2-0.5-3.4-1.5-4.2c-0.9-0.7-2.5-1.1-4.6-1.1c-1.6,0-2.7,0.1-3.3,0.4v4.6h0.2c0.7-0.7,1.6-1,2.7-1
		c0.7,0,1.1,0.4,1.1,1.3v18.6h5.5V244.6z M351.1,246.1c0-2.4-0.6-4.1-1.9-5.2c-1.3-1.1-3-1.6-5.3-1.6c-1,0-1.7,0.1-2.3,0.4v4.6h0.2
		c0.9-0.6,1.8-0.9,2.7-0.9c0.7,0,1.1,0.4,1.1,1.3V273h5.5V246.1z M306.3,249.9h-5.5v13.3h5.5V249.9z M320.9,248.6
		c0-3.1-0.9-5.5-2.6-7c-1.7-1.6-4.9-2.3-9.5-2.3c-3.7,0-6.3,0.2-8,0.6v5.1h0.3c3-1.2,5.9-1.8,8.8-1.8c3.6,0,5.5,1.5,5.5,4.6v15.5
		h5.5V248.6z M278.5,249.9H273v13.3h5.5V249.9z M293.1,248.6c0-3.1-0.9-5.5-2.6-7c-1.7-1.6-4.9-2.3-9.5-2.3c-3.7,0-6.3,0.2-8,0.6
		v5.1h0.3c3-1.2,5.9-1.8,8.8-1.8c3.6,0,5.5,1.5,5.5,4.6v15.5h5.5V248.6z M260.6,239.5l-3.4,10.5c-0.1,0.4-0.2,0.5-0.3,0.3
		c-2.5-3.4-5.1-7-7.8-10.8h-6.2v0.3c5.4,7.8,10.4,14.3,15.2,19.5h-13.7v4.5h0.2c1.6-0.4,3.6-0.6,6-0.6h14.1v-3.1
		c-2.8-3.3-5-6.1-6.6-8.2c2.1-1.1,3.4-1.8,3.9-2.2c0.8-0.7,1.4-1.6,1.8-2.8l2.3-7.3H260.6z M232.3,240.2c-1.5-0.5-3.5-0.8-6-0.8
		h-3.5v-6.1h-5.5v11.2h0.2c2.4-0.7,4.9-1,7.8-1c3,0,5.1,0.3,6.4,1c0.8,0.4,1.2,0.9,1.2,1.6c0,0.4-0.2,0.9-0.5,1.3l-10.3,13.8
		l4.2,2.8l7.4-9.8c2.6-3.5,4-6.1,4-7.9C237.7,243.5,235.9,241.4,232.3,240.2 M196.6,249.9h-5.5v13.3h5.5V249.9z M211.3,248.6
		c0-3.1-0.9-5.5-2.6-7c-1.7-1.6-4.9-2.3-9.5-2.3c-3.7,0-6.3,0.2-8,0.6v5.1h0.3c3-1.2,5.9-1.8,8.8-1.8c3.6,0,5.5,1.5,5.5,4.6v15.5
		h5.5V248.6z M154.2,249.9h-5.5v13.3h5.5V249.9z M168.8,248.6c0-3.1-0.9-5.5-2.6-7c-1.7-1.6-4.9-2.3-9.5-2.3c-3.7,0-6.3,0.2-8,0.6
		v5.1h0.3c3-1.2,5.9-1.8,8.8-1.8c3.6,0,5.5,1.5,5.5,4.6v15.5h5.5V248.6z M136.4,240.2c-1.5-0.5-3.5-0.8-6-0.8h-3.5v-6.1h-5.5v11.2
		h0.2c2.4-0.7,4.9-1,7.8-1c3,0,5.1,0.3,6.4,1c0.8,0.4,1.2,0.9,1.2,1.6c0,0.4-0.2,0.9-0.5,1.3l-10.3,13.8l4.2,2.8l7.4-9.8
		c2.6-3.5,4-6.1,4-7.9C141.7,243.5,140,241.4,136.4,240.2 M115.9,263c-3.2-4.2-5.7-7.6-7.7-10.2c2-1,3.2-1.8,3.8-2.2
		c0.7-0.7,1.1-1.6,1.5-2.9l1.9-8.1h-5.6l-2.5,11.3c-0.1,0.4-0.2,0.4-0.3,0.2c-3.8-4.9-6.7-8.7-8.9-11.6H92v0.3
		c3.1,3.9,5.6,7.1,7.5,9.7c-1.9,1-3.1,1.8-3.6,2.3c-0.7,0.6-1.1,1.4-1.4,2.4l-2.4,9.2h5.4l3-11.8c0-0.2,0-0.3,0-0.3
		c0.1,0.1,0.3,0.3,0.4,0.4c3.9,5.1,6.9,9,8.8,11.7h6V263z M85.8,244.6c0-2-0.5-3.4-1.6-4.2c-0.9-0.7-2.5-1.1-4.6-1.1
		c-1.6,0-2.7,0.1-3.3,0.4v4.6h0.2c0.7-0.7,1.6-1,2.7-1c0.7,0,1.1,0.4,1.1,1.3v18.6h5.5V244.6z M70.7,250.1c0-4.3-1.2-7.3-3.5-9
		c-1.7-1.3-5.5-2-11.4-2c-3.1,0-6.2,0.3-9.3,0.8v0.3c1.2,1.5,1.8,2.8,1.8,4v19h5.5v-19.8c1.6-0.5,3.5-0.7,5.7-0.7
		c3.8,0,5.8,1.9,5.8,5.8v7c0,1.2-0.3,2.1-0.9,2.8c-0.6,0.7-1.5,1.1-2.6,1.1c-1.4,0-2.7-0.5-4.1-1.4h-0.3v4.8c0.9,0.4,2,0.6,3.4,0.6
		c3.2,0,5.6-0.9,7.3-2.6c1.9-2,2.8-4.5,2.8-7.8V250.1z M40.4,245.6c0-2.3-0.5-4-1.6-4.9c-1-0.9-2.6-1.4-4.7-1.4
		c-1,0-2.1,0.1-3.2,0.4v4.9H31c0.8-0.7,1.7-1.1,2.7-1.1c0.7,0,1.1,0.4,1.1,1.2v10.5h0.5c1.8-0.8,3.2-1.7,4.1-2.8
		c0.5-0.7,0.8-1.4,0.8-2.4V245.6z"/>
</g>
</svg>
